<?xml version="1.0" encoding="UTF-8" standalone="no"?>
<svg xmlns:dc="http://purl.org/dc/elements/1.1/" xmlns:cc="http://creativecommons.org/ns#" xmlns:rdf="http://www.w3.org/1999/02/22-rdf-syntax-ns#" xmlns:svg="http://www.w3.org/2000/svg" xmlns="http://www.w3.org/2000/svg" xmlns:xlink="http://www.w3.org/1999/xlink" xmlns:sodipodi="http://sodipodi.sourceforge.net/DTD/sodipodi-0.dtd" xmlns:inkscape="http://www.inkscape.org/namespaces/inkscape" version="1.1" inkscape:version="0.91pre2 r13516" sodipodi:docname="9-1.svg" id="svgEmpty" height="100" width="100" inkscape:export-filename="D:\_\_1.2.0\the\system\software\beta\pattern\1.0.6\9-1.png" inkscape:export-xdpi="270" inkscape:export-ydpi="270">
  <sodipodi:namedview id="internalSetup" pagecolor="#fffffe" bordercolor="#515045" borderopacity="0.14" inkscape:current-layer="layerdraw1" inkscape:document-units="px" inkscape:pageopacity="0.0" inkscape:pageshadow="0" inkscape:zoom="3.3117785" inkscape:cx="152.17159" inkscape:cy="50.16254" inkscape:window-width="1280" inkscape:window-height="777" inkscape:window-x="-8" inkscape:window-y="-8" inkscape:window-maximized="1" showgrid="false" inkscape:showpageshadow="false" />
  <metadata id="fileMetadata">
    <rdf:RDF>
      <cc:Work rdf:about="">
        <dc:title />
        <dc:format>image/svg+xml</dc:format>
        <dc:type rdf:resource="http://purl.org/dc/dcmitype/StillImage" />
      </cc:Work>
    </rdf:RDF>
  </metadata>
  <defs id="reuseDef">
    <clipPath id="CLIPDRAW" clipPathUnits="userSpaceOnUse">
      <rect id="clipper" y="0" x="200" height="100" width="100" style="display:inline;overflow:visible;visibility:visible;opacity:1;fill:#545045;fill-opacity:1;fill-rule:nonzero;stroke:none;enable-background:accumulate" />
    </clipPath>
    <symbol id="DRAWREGULAR">
      <use id="symdraw1" xlink:href="#DRAWING" x="0" y="0" height="100%" width="100%" transform="translate(-200,0)" style="display:inline" />
    </symbol>
    <symbol id="DRAWFH">
      <use id="symdraw2" xlink:href="#DRAWING" x="0" y="0" height="100%" width="100%" transform="matrix(-1,0,0,1,300,0)" style="display:inline" />
    </symbol>
    <symbol id="DRAWFV">
      <use id="symdraw3" xlink:href="#DRAWING" x="0" y="0" height="100%" width="100%" transform="matrix(1,0,0,-1,-200,100)" style="display:inline" />
    </symbol>
    <symbol id="DRAWFHV">
      <use id="symdraw4" xlink:href="#DRAWING" x="0" y="0" height="100%" width="100%" transform="matrix(-1,0,0,-1,300,100)" style="display:inline" />
    </symbol>
    <symbol id="DRAWR90">
      <use id="symdraw5" xlink:href="#DRAWING" x="0" y="0" height="100%" width="100%" transform="matrix(0,1,-1,0,100,-200)" style="display:inline" />
    </symbol>
    <symbol id="DRAWR90FH">
      <use id="symdraw6" xlink:href="#DRAWING" x="0" y="0" height="100%" width="100%" transform="matrix(0,1,1,0,0,-200)" style="display:inline" />
    </symbol>
    <symbol id="DRAWR90FV">
      <use id="symdraw7" xlink:href="#DRAWING" x="0" y="0" height="100%" width="100%" transform="matrix(0,-1,-1,0,100,300)" style="display:inline" />
    </symbol>
    <symbol id="DRAWR180">
      <use id="symdraw8" xlink:href="#DRAWING" x="0" y="0" height="100%" width="100%" transform="matrix(-1,0,0,-1,300,100)" style="display:inline" />
    </symbol>
    <symbol id="DRAWR270">
      <use id="symdraw9" xlink:href="#DRAWING" x="0" y="0" height="100%" width="100%" transform="matrix(0,-1,1,0,0,300)" style="display:inline" />
    </symbol>
    <!-- CMM, P4M, PM. -->
    <pattern id="PATCM" patternUnits="userSpaceOnUse" width="200" height="200" patternTransform="matrix(0.25,0,0,0.25,0,0)">
      <use id="cmsym1" xlink:href="#DRAWFH" x="0" y="0" width="100%" height="100%" />
      <use id="cmsym2" xlink:href="#DRAWREGULAR" x="100" y="0" width="100%" height="100%" />
      <use id="cmsym3" xlink:href="#DRAWREGULAR" x="0" y="100" width="100%" height="100%" />
      <use id="cmsym4" xlink:href="#DRAWFH" x="100" y="100" width="100%" height="100%" />
    </pattern>
    <pattern id="PATP1" patternUnits="userSpaceOnUse" width="100" height="100" patternTransform="matrix(0.25,0,0,0.25,0,0)">
      <use id="p1sym1" xlink:href="#DRAWREGULAR" x="0" y="0" width="100%" height="100%" />
    </pattern>
    <pattern id="PATP2" patternUnits="userSpaceOnUse" width="200" height="100" patternTransform="matrix(0.25,0,0,0.25,0,0)">
      <use id="p2sym1" xlink:href="#DRAWREGULAR" x="0" y="0" width="100%" height="100%" />
      <use id="p2sym2" xlink:href="#DRAWR180" x="100" y="0" width="100%" height="100%" />
    </pattern>
    <pattern id="PATP4" patternUnits="userSpaceOnUse" width="200" height="200" patternTransform="matrix(0.25,0,0,0.25,0,0)">
      <use id="p4sym1" xlink:href="#DRAWR270" x="0" y="0" width="100%" height="100%" />
      <use id="p4sym2" xlink:href="#DRAWR90FV" x="100" y="0" width="100%" height="100%" />
      <use id="p4sym3" xlink:href="#DRAWFH" x="0" y="100" width="100%" height="100%" />
      <use id="p4sym4" xlink:href="#DRAWREGULAR" x="100" y="100" width="100%" height="100%" />
    </pattern>
    <pattern id="PATP4G" patternUnits="userSpaceOnUse" width="200" height="200" patternTransform="matrix(0.25,0,0,0.25,0,0)">
      <use id="p4gsym1" xlink:href="#DRAWFV" x="0" y="0" width="100%" height="100%" />
      <use id="p4gsym2" xlink:href="#DRAWR90FV" x="100" y="0" width="100%" height="100%" />
      <use id="p4gsym3" xlink:href="#DRAWR90FH" x="0" y="100" width="100%" height="100%" />
      <use id="p4gsym4" xlink:href="#DRAWFH" x="100" y="100" width="100%" height="100%" />
    </pattern>
    <pattern id="PATPG" patternUnits="userSpaceOnUse" width="100" height="200" patternTransform="matrix(0.25,0,0,0.25,0,0)">
      <use id="pgsym1" xlink:href="#DRAWFH" x="0" y="0" width="100%" height="100%" />
      <use id="pgsym2" xlink:href="#DRAWREGULAR" x="0" y="100" width="100%" height="100%" />
    </pattern>
    <pattern id="PATPGG" patternUnits="userSpaceOnUse" width="200" height="200" patternTransform="matrix(0.25,0,0,0.25,0,0)">
      <use id="pggsym1" xlink:href="#DRAWFHV" x="0" y="0" width="100%" height="100%" />
      <use id="pggsym2" xlink:href="#DRAWFH" x="100" y="0" width="100%" height="100%" />
      <use id="pggsym3" xlink:href="#DRAWREGULAR" x="0" y="100" width="100%" height="100%" />
      <use id="pggsym4" xlink:href="#DRAWFV" x="100" y="100" width="100%" height="100%" />
    </pattern>
    <pattern id="PATPMG" patternUnits="userSpaceOnUse" width="200" height="200" patternTransform="matrix(0.25,0,0,0.25,0,0)">
      <use id="pmgsym1" xlink:href="#DRAWR270" x="0" y="0" width="100%" height="100%" />
      <use id="pmgsym2" xlink:href="#DRAWR180" x="100" y="0" width="100%" height="100%" />
      <use id="pmgsym3" xlink:href="#DRAWREGULAR" x="0" y="100" width="100%" height="100%" />
      <use id="pmgsym4" xlink:href="#DRAWR90" x="100" y="100" width="100%" height="100%" />
    </pattern>
    <pattern id="PATPMM" patternUnits="userSpaceOnUse" width="200" height="200" patternTransform="matrix(0.25,0,0,0.25,0,0)">
      <use id="pmmsym1" xlink:href="#DRAWFV" x="0" y="0" width="100%" height="100%" />
      <use id="pmmsym2" xlink:href="#DRAWR180" x="100" y="0" width="100%" height="100%" />
      <use id="pmmsym3" xlink:href="#DRAWREGULAR" x="0" y="100" width="100%" height="100%" />
      <use id="pmmsym4" xlink:href="#DRAWFH" x="100" y="100" width="100%" height="100%" />
    </pattern>
  </defs>
  <g id="BACKGROUND" inkscape:label="Background" inkscape:groupmode="layer" sodipodi:insensitive="true">
    <rect id="backgrounder" x="-110" y="-110" height="320" width="520" style="display:inline;overflow:visible;visibility:visible;opacity:1;fill:#296a83;fill-opacity:1;fill-rule:nonzero;stroke:none;enable-background:accumulate" />
  </g>
  <g id="layerpattern" inkscape:label="Pattern" inkscape:groupmode="layer" style="display:inline" sodipodi:insensitive="true">
    <g id="layerpatternpmm" inkscape:label="PMM" inkscape:groupmode="layer" style="display:none" sodipodi:insensitive="true">
      <rect id="pmmpreview" style="fill:url(#PATPMM);stroke:none" x="-100" y="-100" height="300" width="500" />
    </g>
    <g id="layerpatternpmg" inkscape:label="PMG" inkscape:groupmode="layer" style="display:none" sodipodi:insensitive="true">
      <rect id="pmgpreview" style="fill:url(#PATPMG);stroke:none" x="-100" y="-100" height="300" width="500" />
    </g>
    <g id="layerpatternpgg" inkscape:label="PGG" inkscape:groupmode="layer" style="display:none" sodipodi:insensitive="true">
      <rect id="pggpreview" style="fill:url(#PATPGG);stroke:none" x="-100" y="-100" height="300" width="500" />
    </g>
    <g id="layerpatternpg" inkscape:label="PG" inkscape:groupmode="layer" style="display:none" sodipodi:insensitive="true">
      <rect id="pgpreview" style="fill:url(#PATPG);stroke:none" x="-100" y="-100" height="300" width="500" />
    </g>
    <g id="layerpatternp4g" inkscape:label="P4G" inkscape:groupmode="layer" style="display:none" sodipodi:insensitive="true">
      <rect id="p4gpreview" style="fill:url(#PATP4G);stroke:none" x="-100" y="-100" height="300" width="500" />
    </g>
    <g id="layerpatternp4" inkscape:label="P4" inkscape:groupmode="layer" style="display:none" sodipodi:insensitive="true">
      <rect id="p4preview" style="fill:url(#PATP4);stroke:none" x="-100" y="-100" height="300" width="500" />
    </g>
    <g id="layerpatternp2" inkscape:label="P2" inkscape:groupmode="layer" style="display:none" sodipodi:insensitive="true">
      <rect id="p2preview" style="fill:url(#PATP2);stroke:none" x="-100" y="-100" height="300" width="500" />
    </g>
    <g id="layerpatternp1" inkscape:label="P1" inkscape:groupmode="layer" style="display:none" sodipodi:insensitive="true">
      <rect id="p1preview" style="fill:url(#PATP1);stroke:none" x="-100" y="-100" height="300" width="500" />
    </g>
    <g id="layerpatterncm" inkscape:label="CM" inkscape:groupmode="layer" style="display:inline" sodipodi:insensitive="true">
      <rect id="cmpreview" style="fill:url(#PATCM);stroke:none" x="-100" y="-100" height="300" width="500" />
    </g>
    <use id="bckdoubler" xlink:href="#BACKGROUND" x="0" y="0" height="100%" width="100%" clip-path="url(#CLIPDRAW)" sodipodi:insensitive="true" style="display:inline" />
  </g>
  <g id="DRAWING" inkscape:label="Draw" inkscape:groupmode="layer" style="display:inline" clip-path="url(#CLIPDRAW)">
    <g id="layerdraw1" inkscape:label="Draw 1" inkscape:groupmode="layer" style="display:inline">
      <path style="fill:none;fill-rule:evenodd;stroke:#f1f1f1;stroke-width:20;stroke-linecap:butt;stroke-linejoin:miter;stroke-miterlimit:4;stroke-dasharray:none;stroke-opacity:0.48876403" d="m 180.42671,58.24634 3.29722,0.600739 122.33731,21.143067" id="path9025" inkscape:connector-curvature="0" />
      <path style="color:black;display:inline;overflow:visible;visibility:visible;opacity:1;fill:#b1c7cf;fill-opacity:1;fill-rule:nonzero;stroke:#f1f1f1;stroke-width:20;stroke-linecap:square;stroke-linejoin:miter;stroke-miterlimit:4;stroke-dasharray:none;stroke-dashoffset:0;stroke-opacity:0.48876403;marker:none;enable-background:accumulate" id="path10739" d="m 315.19603,22.370945 c -1.84334,0.372008 -3.61317,1.013228 -5.37725,1.650217 -2.18331,0.844681 -4.34059,1.75364 -6.48239,2.69807 -2.42498,1.113089 -4.83557,2.257305 -7.2525,3.38776 -2.59085,1.188716 -5.14719,2.447597 -7.69165,3.731637 -2.33221,1.201106 -4.68291,2.365624 -7.0247,3.547896 -2.31971,1.134882 -4.55762,2.418724 -6.7394,3.797557 -1.91567,1.233448 -3.74607,2.587479 -5.49862,4.042731 -1.74187,1.394322 -3.37402,2.913934 -4.92857,4.512329 -1.71938,1.771301 -3.34853,3.625712 -4.93346,5.517228 -1.79441,2.170557 -3.46095,4.442118 -5.23352,6.629953 -1.83053,2.217048 -3.68998,4.409073 -5.48723,6.653419 -1.88855,2.378418 -3.67169,4.836405 -5.37064,7.353027 -1.70352,2.639236 -3.43445,5.261715 -5.11282,7.917072 -1.57773,2.396766 -3.06648,4.849023 -4.49074,7.339457 -1.25006,2.122259 -2.27173,4.363264 -3.27131,6.610476 -1.01434,2.289946 -1.9345,4.617516 -2.82664,6.957046 -0.86447,2.30131 -1.46841,4.68159 -2.03407,7.06951 -0.38757,1.85749 -0.67491,3.73451 -0.87106,5.62146 -0.049,1.26417 -0.15173,2.29039 -0.815,3.38268 0.16813,0.90802 -1.116,1.1458 -1.28413,0.23777 l 0,0 c -1.02949,-1.08384 -0.98084,-1.96793 -0.97475,-3.40922 0.10847,-2.00536 0.39967,-3.99301 0.82713,-5.95577 0.51962,-2.50907 1.21709,-4.98186 2.07986,-7.39503 0.8647,-2.39693 1.83844,-4.75358 2.84944,-7.092203 1.00648,-2.337518 2.06945,-4.654055 3.33878,-6.862865 1.46196,-2.528581 3.00987,-5.006531 4.62042,-7.44315 1.78148,-2.623116 3.52028,-5.275116 5.30406,-7.896785 1.75518,-2.543668 3.54085,-5.066594 5.46339,-7.487965 1.79553,-2.264129 3.65229,-4.475855 5.54785,-6.656623 1.80841,-2.192978 3.62277,-4.380891 5.43707,-6.568962 1.61599,-1.931294 3.28342,-3.818738 5.01881,-5.644004 1.63388,-1.653192 3.33593,-3.238828 5.20251,-4.629992 2.29391,-1.710248 4.57878,-3.445372 7.02034,-4.942029 2.24058,-1.367523 4.53192,-2.653213 6.90591,-3.776563 2.35054,-1.13505 4.69695,-2.277239 7.02346,-3.461063 2.55977,-1.283808 5.14688,-2.51245 7.74262,-3.72173 2.4166,-1.113313 4.84441,-2.202235 7.31281,-3.19695 2.17567,-0.910834 4.34002,-1.856464 6.57459,-2.617047 1.81662,-0.63979 3.66117,-1.191632 5.5749,-1.456775 1.10127,0.101466 0.95777,1.658897 -0.1435,1.557431 z" inkscape:connector-curvature="0" />
      <path style="color:black;display:inline;overflow:visible;visibility:visible;opacity:1;fill:#b1c7cf;fill-opacity:1;fill-rule:nonzero;stroke:#f1f1f1;stroke-width:20;stroke-linecap:square;stroke-linejoin:miter;stroke-miterlimit:4;stroke-dasharray:none;stroke-dashoffset:0;stroke-opacity:0.48876403;marker:none;enable-background:accumulate" id="path10777" d="m 312.30496,14.661859 c -2.15637,0.469315 -4.33516,0.824889 -6.49774,1.262801 -2.67232,0.545903 -5.29194,1.314548 -7.90425,2.091594 -2.81931,0.824251 -5.63072,1.669808 -8.4071,2.629293 -2.72416,0.932988 -5.25489,2.308995 -7.7703,3.689752 -2.71847,1.510555 -5.31192,3.228108 -7.89809,4.951125 -2.91042,1.949599 -5.78587,3.950441 -8.66426,5.946821 -2.46526,1.658076 -4.88345,3.385076 -7.15227,5.304745 -2.05562,1.758365 -3.97593,3.664569 -5.86885,5.594462 -1.77047,1.803011 -3.44752,3.692878 -5.12006,5.585856 -1.55801,1.733635 -3.05882,3.515755 -4.55846,5.299549 -1.45148,1.783699 -2.8923,3.577385 -4.38561,5.326397 -1.36998,1.601108 -2.7522,3.189307 -4.05004,4.850369 -1.32315,1.741309 -2.46831,3.601257 -3.5308,5.509673 -1.24583,2.358268 -2.35042,4.787632 -3.4728,7.206104 -1.25193,2.69301 -2.4981,5.388696 -3.75545,8.079192 -1.26532,2.693147 -2.40623,5.441374 -3.43102,8.234328 -0.78028,2.329175 -1.64241,4.62275 -2.65315,6.86092 -0.17789,0.32393 -0.35578,0.64785 -0.53367,0.97178 -0.0229,0.44178 -0.64765,0.40943 -0.62477,-0.0324 l 0,0 c -0.0196,-0.34001 -0.0392,-0.68003 -0.0588,-1.02005 0.1771,-2.43879 0.69367,-4.812916 1.55527,-7.107945 1.02939,-2.844639 2.14442,-5.65573 3.44982,-8.386992 1.24375,-2.69734 2.50693,-5.385685 3.7412,-8.087396 1.15326,-2.447528 2.27062,-4.913254 3.50794,-7.320059 1.08577,-1.996258 2.25605,-3.949367 3.63036,-5.763195 1.28489,-1.710326 2.67826,-3.330909 4.11206,-4.918202 1.47558,-1.762393 2.93889,-3.534686 4.40895,-5.301609 1.49358,-1.811343 3.05541,-3.563995 4.60495,-5.327381 1.67713,-1.928548 3.37407,-3.840572 5.16018,-5.669667 1.92485,-1.980044 3.87708,-3.939399 5.98062,-5.731604 2.33075,-1.922161 4.72416,-3.753693 7.24218,-5.427791 2.88916,-2.003269 5.77564,-4.010528 8.70203,-5.959277 3.04737,-2.026849 6.12989,-4.005797 9.33867,-5.770064 2.59279,-1.415848 5.24052,-2.739883 8.05083,-3.675007 2.8018,-0.947279 5.63925,-1.779382 8.50075,-2.527445 2.64923,-0.675998 5.3083,-1.319996 8.01238,-1.740486 2.15338,-0.334448 4.31383,-0.654205 6.49416,-0.743636 0.78871,0.109482 0.63388,1.224887 -0.15483,1.115405 z" inkscape:connector-curvature="0" />
      <path style="color:black;display:inline;overflow:visible;visibility:visible;opacity:1;fill:#b1c7cf;fill-opacity:1;fill-rule:nonzero;stroke:#f1f1f1;stroke-width:20;stroke-linecap:square;stroke-linejoin:miter;stroke-miterlimit:4;stroke-dasharray:none;stroke-dashoffset:0;stroke-opacity:0.48876403;marker:none;enable-background:accumulate" id="path10815" d="m 310.26914,5.479518 c -1.83921,0.037233 -3.67156,0.191396 -5.49946,0.3896552 -2.1207,0.2835506 -4.23667,0.6108824 -6.34061,1.0000357 -2.26108,0.3398216 -4.50604,0.7636641 -6.73803,1.2577852 -2.39044,0.5610402 -4.71384,1.3572073 -7.03678,2.1431719 -2.54878,0.897578 -5.07737,1.851608 -7.58762,2.851671 -2.61562,1.043113 -5.17845,2.206203 -7.70675,3.444461 -2.13894,0.994327 -4.14541,2.22118 -6.10853,3.519713 -1.89693,1.314303 -3.66176,2.805229 -5.39855,4.321305 -1.78302,1.510068 -3.58425,2.997749 -5.35157,4.526518 -1.94371,1.614893 -3.7832,3.346454 -5.60599,5.094569 -1.68949,1.640913 -3.37829,3.283281 -5.04271,4.94984 -1.68172,1.620199 -3.31756,3.286562 -4.95913,4.947085 -1.75078,1.776873 -3.36936,3.672115 -4.95094,5.59891 -1.4553,1.927688 -2.86994,3.88573 -4.28466,5.843249 -1.51107,2.027219 -2.90482,4.13303 -4.22615,6.287563 -1.45064,2.361242 -2.77254,4.798567 -4.08084,7.240606 -1.4557,2.661132 -2.94101,5.304545 -4.32915,8.001929 -1.37515,2.707855 -2.63333,5.472435 -3.89331,8.235019 -1.15644,2.53596 -2.32619,5.066466 -3.31709,7.672608 -1.03753,2.654106 -1.59959,5.452101 -2.37843,8.183738 -0.18831,0.49534 -0.37661,0.99069 -0.56492,1.48603 0.0118,0.76301 -1.06722,0.77973 -1.07905,0.0167 l 0,0 c -0.0411,-0.50073 -0.0823,-1.00146 -0.12338,-1.50219 0.16004,-2.93181 0.83915,-5.785799 1.86596,-8.536994 1.01785,-2.632902 2.10693,-5.234095 3.32111,-7.78374 1.27119,-2.786762 2.52143,-5.584063 3.91103,-8.314791 1.38304,-2.709277 2.83323,-5.382094 4.30005,-8.046836 1.33372,-2.465112 2.65704,-4.936323 4.09357,-7.343884 1.34553,-2.192477 2.73044,-4.363091 4.27234,-6.424331 1.44404,-1.970176 2.84122,-3.975441 4.32884,-5.913216 1.56476,-2.014427 3.24281,-3.939406 5.02038,-5.769431 1.62814,-1.679727 3.29961,-3.317136 4.9306,-4.994266 1.69352,-1.657903 3.3902,-3.312389 5.09851,-4.954973 1.85177,-1.770727 3.75849,-3.48125 5.6957,-5.158014 1.78619,-1.517984 3.59306,-3.009749 5.39533,-4.508309 1.82621,-1.514615 3.59211,-3.111542 5.55245,-4.455679 2.43837,-1.660149 4.99716,-3.13556 7.65862,-4.40983 2.57328,-1.225278 5.17534,-2.393996 7.83059,-3.431562 2.53911,-1.0018235 5.08677,-1.9830175 7.67672,-2.847182 2.37637,-0.7945767 4.76898,-1.5655527 7.23099,-2.0515353 2.25524,-0.4368951 4.52982,-0.7595688 6.79188,-1.1586685 2.13617,-0.3148885 4.26884,-0.668426 6.4241,-0.831074 1.85581,-0.1466547 3.71626,-0.2254009 5.57727,-0.1269223 1.09689,0.2633192 0.7245,1.8145553 -0.37239,1.5512361 z" inkscape:connector-curvature="0" />
      <path style="color:black;display:inline;overflow:visible;visibility:visible;opacity:1;fill:#b1c7cf;fill-opacity:1;fill-rule:nonzero;stroke:#f1f1f1;stroke-width:20;stroke-linecap:square;stroke-linejoin:miter;stroke-miterlimit:4;stroke-dasharray:none;stroke-dashoffset:0;stroke-opacity:0.48876403;marker:none;enable-background:accumulate" id="path10925" d="m 195.93408,48.243066 c 1.59493,0.442038 3.13564,1.065906 4.64721,1.73523 1.60807,0.749406 3.17821,1.573835 4.79702,2.300842 1.80573,0.81542 3.74883,1.190425 5.68894,1.518575 2.06283,0.276895 4.13203,0.48017 6.19072,0.790314 2.00935,0.33619 3.95756,0.942038 5.91784,1.482269 1.8007,0.479391 3.59549,0.979495 5.38742,1.490409 1.7672,0.534066 3.57211,0.924131 5.35577,1.396602 1.97359,0.493388 3.9791,0.802005 5.99873,1.025867 2.12856,0.221989 4.25927,0.421172 6.38378,0.680483 2.21032,0.285283 4.40948,0.646693 6.6179,0.946705 2.0451,0.280568 4.09804,0.492387 6.14251,0.776934 2.05145,0.322028 4.08881,0.725877 6.14188,1.037487 2.14089,0.341296 4.30319,0.529971 6.46327,0.701441 2.1815,0.175744 4.346,0.504935 6.49815,0.895782 2.04606,0.393381 4.11205,0.660625 6.17654,0.933551 1.98819,0.233051 3.95612,0.597049 5.92903,0.928322 1.9362,0.363219 3.85587,0.80262 5.77747,1.234971 1.90913,0.429668 3.82796,0.82586 5.76399,1.113212 1.95558,0.29863 3.9252,0.483186 5.89572,0.647505 1.73058,0.157304 3.46667,0.200258 5.20168,0.272382 1.61882,0.0656 3.23791,0.11714 4.85486,0.220545 1.72443,0.136455 3.44816,0.288452 5.17606,0.373326 1.76885,0.02755 3.51423,-0.08187 5.27767,0.09582 0.30036,0.09182 0.60072,0.183647 0.90108,0.27547 0.2462,0.03611 0.19513,0.384293 -0.0511,0.348181 l 0,0 c -0.33435,0.164001 -0.6687,0.328001 -1.00304,0.492002 -1.8574,0.629875 -3.73559,1.063808 -5.71589,0.977942 -1.74769,-0.05527 -3.4897,-0.174698 -5.233,-0.308016 -1.60722,-0.094 -3.21593,-0.155705 -4.82418,-0.228169 -1.75189,-0.08822 -3.50318,-0.19909 -5.25064,-0.351781 -2.01455,-0.175281 -4.02781,-0.384101 -6.0198,-0.739749 -1.94453,-0.379169 -3.87206,-0.821178 -5.78812,-1.325778 -1.87988,-0.469698 -3.76229,-0.940252 -5.67011,-1.283653 -1.93852,-0.382383 -3.89507,-0.661722 -5.85292,-0.925278 -2.08287,-0.276869 -4.16386,-0.570468 -6.2248,-0.98451 -2.11431,-0.36159 -4.23424,-0.695688 -6.37901,-0.813556 -2.20118,-0.177582 -4.40068,-0.361488 -6.58123,-0.7247 -2.03451,-0.346384 -4.05904,-0.75057 -6.10145,-1.047818 -2.0476,-0.277663 -4.10216,-0.498631 -6.14832,-0.787285 -2.19184,-0.331568 -4.3829,-0.667984 -6.58174,-0.950711 -2.12231,-0.25373 -4.24803,-0.472762 -6.37394,-0.69368 -2.07125,-0.25585 -4.14238,-0.553981 -6.15378,-1.128163 -1.8178,-0.42107 -3.61791,-0.907196 -5.41138,-1.422565 -1.77342,-0.539056 -3.5485,-1.071634 -5.33419,-1.568917 -1.89931,-0.554341 -3.80516,-1.104976 -5.75761,-1.440227 -2.06275,-0.32989 -4.1484,-0.485687 -6.21054,-0.822849 -2.0278,-0.380313 -4.00158,-0.959971 -5.84916,-1.896263 -1.59551,-0.770778 -3.17393,-1.576569 -4.74798,-2.390172 -1.42499,-0.722828 -2.8561,-1.433092 -4.37312,-1.947609 -0.64397,-0.319461 -0.19219,-1.230176 0.45178,-0.910715 z" inkscape:connector-curvature="0" />
      <path style="color:black;display:inline;overflow:visible;visibility:visible;opacity:1;fill:#b1c7cf;fill-opacity:1;fill-rule:nonzero;stroke:#f1f1f1;stroke-width:20;stroke-linecap:square;stroke-linejoin:miter;stroke-miterlimit:4;stroke-dasharray:none;stroke-dashoffset:0;stroke-opacity:0.48876403;marker:none;enable-background:accumulate" id="path10963" d="m 192.35666,75.611857 c 1.83505,0.05722 3.66677,0.128537 5.50291,0.08159 2.10648,-0.04541 4.21074,-0.147016 6.3179,-0.165216 2.57319,0.03311 5.14261,0.194482 7.71369,0.294688 3.00272,0.142687 6.00961,0.144669 9.01496,0.164887 3.08792,0.0044 6.16964,0.210177 9.24322,0.490652 3.0031,0.228321 6.00031,0.518697 8.9886,0.893709 2.84459,0.420377 5.65383,1.040635 8.48468,1.539416 2.6713,0.515229 5.38181,0.741952 8.09204,0.925293 2.42199,0.134714 4.82272,0.485542 7.20879,0.908967 2.41496,0.460798 4.80068,1.050645 7.17782,1.674578 2.39091,0.620337 4.73685,1.396565 7.09302,2.134258 2.32385,0.731586 4.64774,1.463136 6.99765,2.107046 2.30873,0.584227 4.60857,1.19677 6.88543,1.895386 2.22981,0.701226 4.39486,1.578966 6.5435,2.494062 1.9753,0.865824 3.95073,1.73019 5.83754,2.77765 1.73111,0.993113 3.2651,2.279108 4.79909,3.545076 1.43163,1.159203 2.80544,2.384763 4.13257,3.661551 1.1378,1.16286 2.28496,2.31992 3.39493,3.51043 1.07827,1.11282 2.10974,2.2632 3.04741,3.4971 0.9189,1.20513 1.64167,2.53309 2.24963,3.91677 0.32978,0.92088 0.16964,0.46149 0.48066,1.37809 0.14597,0.2413 -0.19528,0.44773 -0.34125,0.20644 l 0,0 c -0.64917,-0.68664 -0.31621,-0.34875 -0.99922,-1.01331 -1.02259,-1.02786 -2.08839,-2.00612 -3.22667,-2.90592 -1.17776,-1.00738 -2.27075,-2.09574 -3.31894,-3.23729 -1.11531,-1.12474 -2.18615,-2.29392 -3.37189,-3.34646 -1.35647,-1.1871 -2.73014,-2.354 -4.10818,-3.515722 -1.42065,-1.17096 -2.81562,-2.396334 -4.446,-3.27446 -1.85006,-0.969222 -3.75461,-1.825195 -5.67569,-2.643822 -2.07169,-0.889498 -4.17024,-1.722337 -6.32978,-2.376443 -2.25871,-0.694433 -4.55177,-1.259435 -6.83369,-1.870221 -2.3644,-0.675706 -4.71568,-1.394653 -7.05989,-2.137463 -2.32463,-0.726112 -4.65832,-1.42337 -7.01361,-2.04407 -2.31901,-0.602117 -4.64715,-1.179708 -7.00811,-1.594621 -2.30744,-0.407533 -4.62926,-0.706471 -6.96983,-0.84441 -2.8033,-0.200357 -5.60824,-0.44238 -8.36145,-1.035456 -2.75182,-0.59967 -5.49384,-1.271833 -8.28759,-1.649371 -2.95294,-0.40005 -5.92483,-0.618977 -8.88812,-0.926536 -3.00833,-0.269944 -6.01584,-0.5862 -9.03871,-0.636344 -3.0225,-0.06309 -6.04595,-0.10635 -9.06573,-0.25914 -2.52694,-0.160131 -5.05113,-0.384368 -7.58383,-0.43068 -2.09789,-0.02707 -4.19537,0.0031 -6.29319,0.02638 -1.85239,-0.07094 -3.71359,-0.182183 -5.53975,-0.514452 -1.20393,-0.392502 -0.64885,-2.095115 0.55508,-1.702613 z" inkscape:connector-curvature="0" />
      <path style="color:black;display:inline;overflow:visible;visibility:visible;opacity:1;fill:#b1c7cf;fill-opacity:1;fill-rule:nonzero;stroke:#f1f1f1;stroke-width:20;stroke-linecap:square;stroke-linejoin:miter;stroke-miterlimit:4;stroke-dasharray:none;stroke-dashoffset:0;stroke-opacity:0.48876403;marker:none;enable-background:accumulate" id="path11001" d="m 201.19223,87.009813 c 1.81227,-0.928645 3.81893,-1.262479 5.8171,-1.50924 2.58821,-0.250834 5.18996,-0.105513 7.77954,0.03753 3.03593,0.171871 6.06321,0.468328 9.08255,0.824153 3.51033,0.442999 7.04125,0.63386 10.5731,0.795798 3.47136,0.135142 6.94485,0.130953 10.41803,0.108067 3.31438,-0.03948 6.62368,0.01873 9.93299,0.20066 3.12652,0.229769 6.24248,0.578381 9.34902,0.995948 2.89955,0.400043 5.78543,0.89414 8.66576,1.413166 2.93663,0.517954 5.84067,1.185571 8.69611,2.043468 2.83763,0.879193 5.5914,2.001462 8.29818,3.219541 2.26885,1.021956 4.44542,2.229426 6.58131,3.501916 1.73686,1.08666 3.46928,2.17998 5.21774,3.24795 1.59355,0.99166 3.19413,1.97163 4.82069,2.90825 1.49051,0.86125 3.0159,1.65969 4.49599,2.53909 1.52103,0.89627 2.96927,1.90754 4.41278,2.92196 1.32998,0.94526 2.678,1.86486 3.99132,2.83335 1.09172,0.81487 2.00365,1.80296 2.78618,2.91102 0.36912,0.82101 0.22392,0.38599 0.42228,1.30943 0.11328,0.10554 -0.036,0.26575 -0.14926,0.1602 l 0,0 c -1.014,-0.0414 -0.52573,0.0256 -1.46661,-0.18751 -1.22448,-0.53431 -2.33432,-1.25978 -3.43936,-2.00649 -1.36579,-0.89681 -2.72348,-1.80607 -4.04562,-2.76661 -1.40201,-0.96512 -2.80161,-1.93622 -4.26997,-2.79911 -1.49986,-0.84564 -3.00904,-1.6739 -4.50887,-2.51944 -1.64191,-0.95365 -3.25596,-1.95284 -4.87712,-2.9411 -1.73012,-1.07699 -3.45243,-2.16638 -5.18779,-3.2349 -2.05732,-1.23403 -4.17427,-2.36402 -6.35533,-3.36519 -2.61177,-1.17941 -5.26292,-2.274865 -8.00477,-3.119137 -2.78372,-0.815127 -5.60606,-1.476952 -8.4675,-1.960328 -2.84385,-0.521045 -5.69442,-1.009695 -8.56081,-1.391182 -3.05544,-0.400517 -6.1189,-0.750654 -9.19507,-0.947244 -3.26195,-0.207195 -6.53044,-0.235981 -9.79835,-0.205855 -3.50132,-0.0267 -7.00616,-0.03237 -10.50171,-0.259113 -3.54693,-0.236092 -7.07977,-0.636087 -10.60387,-1.099829 -2.98464,-0.345593 -5.97061,-0.672314 -8.97138,-0.846876 -2.47211,-0.173654 -4.95035,-0.421353 -7.43091,-0.320148 -1.80319,0.144217 -3.61425,0.427905 -5.26109,1.218557 -1.20968,0.173445 -1.45497,-1.53731 -0.24528,-1.710755 z" inkscape:connector-curvature="0" />
      <path style="color:black;display:inline;overflow:visible;visibility:visible;opacity:1;fill:#b1c7cf;fill-opacity:1;fill-rule:nonzero;stroke:#f1f1f1;stroke-width:20;stroke-linecap:square;stroke-linejoin:miter;stroke-miterlimit:4;stroke-dasharray:none;stroke-dashoffset:0;stroke-opacity:0.48876403;marker:none;enable-background:accumulate" id="path11039" d="m 195.20191,18.322736 c 0.21822,1.832628 0.59314,3.630831 1.15725,5.387267 0.504,1.612316 1.4703,2.985912 2.40653,4.367645 0.98566,1.411322 1.81506,2.920693 2.69829,4.395918 0.71436,1.290375 1.60207,2.404626 2.7694,3.301174 1.13807,0.771933 2.35184,1.422992 3.53094,2.129141 1.3253,0.80828 2.60288,1.69175 3.88291,2.569135 1.20733,0.837336 2.50969,1.505203 3.86939,2.05413 1.53255,0.555492 3.08365,1.053327 4.61194,1.620929 1.66211,0.65049 3.32817,1.287277 5.02072,1.854846 1.84163,0.636172 3.6451,1.375146 5.48602,2.012665 1.98995,0.785424 4.10162,1.042824 6.21402,1.233854 2.53558,0.190738 5.07968,0.199742 7.61876,0.314625 2.65474,0.13104 5.30438,0.346325 7.95367,0.559152 2.42684,0.180507 4.84988,0.402186 7.27884,0.554148 2.53664,0.116673 5.07619,0.141285 7.61466,0.196398 2.67706,0.0837 5.34968,0.259131 8.02289,0.419674 2.55485,0.181932 5.11354,0.233165 7.67364,0.219895 2.27052,-0.01386 4.54077,-0.06478 6.81122,-0.06793 2.25984,0.01808 4.50918,-0.199875 6.75129,-0.456333 2.17142,-0.233579 4.31358,-0.64619 6.43462,-1.158472 2.07217,-0.503159 4.07685,-1.237505 6.03298,-2.078828 2.00492,-0.855582 3.98657,-1.764651 5.99927,-2.601814 2.10136,-0.806326 4.19343,-1.630639 6.25802,-2.527322 2.09299,-0.889365 4.11851,-1.925381 6.07646,-3.079981 1.5905,-0.949237 3.07406,-1.855965 4.66415,-2.850556 1.84573,-1.287411 3.7284,-2.430586 5.87695,-3.117503 0.0636,-0.128946 0.24594,-0.03902 0.18236,0.08992 l 0,0 c -0.0409,0.348797 -0.0211,0.710251 -0.12279,1.046391 -0.49736,1.643739 -2.24468,2.69613 -3.46438,3.740444 -2.10469,1.573544 -4.32953,2.974797 -6.60262,4.292478 -2.0694,1.135067 -4.17784,2.191446 -6.35184,3.113865 -2.08129,0.884953 -4.18653,1.708109 -6.2717,2.58328 -2.01304,0.859174 -4.00693,1.762255 -6.02747,2.603789 -2.10467,0.815719 -4.22301,1.599027 -6.43681,2.072772 -2.22303,0.49776 -4.46713,0.892729 -6.73446,1.127554 -2.32838,0.245765 -4.66314,0.417332 -7.00668,0.383651 -2.26908,0.01826 -4.53852,-0.0047 -6.80779,0.02858 -2.60843,-4.98e-4 -5.21511,-0.0888 -7.8187,-0.249443 -2.65072,-0.142838 -5.30178,-0.289148 -7.95612,-0.344942 -2.56934,-0.06513 -5.14123,-0.07213 -7.70741,-0.229761 -2.43796,-0.15177 -4.87047,-0.376493 -7.30537,-0.57008 -2.62168,-0.179089 -5.2412,-0.405992 -7.86763,-0.502377 -2.59527,-0.06645 -5.19283,-0.146781 -7.77946,-0.378212 -2.30248,-0.266333 -4.57458,-0.719019 -6.75234,-1.533312 -1.81313,-0.685413 -3.62077,-1.385671 -5.45213,-2.020989 -1.68615,-0.616772 -3.37379,-1.22803 -5.03902,-1.900415 -1.57153,-0.572637 -3.17161,-1.074404 -4.70748,-1.739834 -1.45791,-0.678289 -2.84823,-1.47754 -4.13941,-2.440008 -1.23963,-0.850904 -2.45543,-1.739556 -3.75169,-2.504789 -1.28164,-0.763069 -2.59785,-1.486953 -3.75528,-2.43587 -1.26082,-1.156579 -2.20229,-2.554074 -2.92859,-4.103245 -0.77323,-1.500317 -1.59114,-2.976054 -2.4596,-4.423592 -0.91708,-1.566155 -1.73884,-3.187132 -2.19211,-4.956544 -0.49194,-1.864226 -0.87466,-3.759565 -0.97502,-5.689571 -0.22033,-1.072476 1.29638,-1.38407 1.51671,-0.311594 z" inkscape:connector-curvature="0" />
      <path style="color:black;display:inline;overflow:visible;visibility:visible;opacity:1;fill:#b1c7cf;fill-opacity:1;fill-rule:nonzero;stroke:#f1f1f1;stroke-width:20;stroke-linecap:square;stroke-linejoin:miter;stroke-miterlimit:4;stroke-dasharray:none;stroke-dashoffset:0;stroke-opacity:0.48876403;marker:none;enable-background:accumulate" id="path11077" d="m 201.95498,-4.626963 c 0.51537,1.7738325 0.86729,3.5898898 1.30065,5.38472907 0.47445,2.14891033 1.09503,4.25829473 1.74899,6.35801393 0.68063,2.1078029 1.72198,4.049082 2.89914,5.914592 1.25888,1.984153 2.7947,3.752889 4.52161,5.338329 1.80877,1.605973 3.88331,2.863513 5.89489,4.19158 2.27559,1.518758 4.44178,3.192412 6.56585,4.914259 2.18407,1.852304 4.35168,3.718118 6.6798,5.388723 2.20422,1.605994 4.71396,2.632816 7.27413,3.511722 2.65999,0.860521 5.38663,1.49466 8.10951,2.119782 2.72605,0.670648 5.48335,1.198598 8.25606,1.632674 2.83824,0.440304 5.70742,0.603094 8.57324,0.734156 3.13988,0.121365 6.2813,0.198456 9.42295,0.255425 3.1679,0.06277 6.33617,0.11252 9.5047,0.122496 2.82345,0.008 5.63881,-0.201597 8.44906,-0.451009 2.76421,-0.266241 5.49519,-0.760358 8.20548,-1.354086 2.75864,-0.645389 5.49779,-1.369807 8.25067,-2.03977 2.46433,-0.536372 4.86788,-1.296185 7.26782,-2.061473 2.41108,-0.760146 4.79301,-1.603462 7.13514,-2.554473 2.28645,-0.956035 4.43633,-2.196159 6.64166,-3.319365 1.76007,-0.954361 3.5795,-1.748654 5.53057,-2.200982 0.54235,-0.107798 0.6948,0.659212 0.15245,0.76701 l 0,0 c -1.54291,1.649235 -3.28419,3.045059 -5.27831,4.125119 -2.2262,1.276825 -4.49646,2.485735 -6.88001,3.446381 -2.39755,0.93668 -4.83737,1.75404 -7.29944,2.504638 -2.44619,0.751508 -4.91254,1.433228 -7.40598,2.011147 -2.77311,0.667044 -5.5267,1.413332 -8.31045,2.036117 -2.79434,0.572718 -5.60628,1.076668 -8.4525,1.30901 -2.87215,0.256696 -5.75246,0.457707 -8.63832,0.412622 -3.1812,-0.01462 -6.36229,-0.04194 -9.54279,-0.115802 -3.15962,-0.07419 -6.31972,-0.139416 -9.47768,-0.269941 -2.94208,-0.146985 -5.8855,-0.344598 -8.7977,-0.806803 -2.81743,-0.470577 -5.62299,-1.006913 -8.39594,-1.697746 -2.77614,-0.686738 -5.56638,-1.333805 -8.27781,-2.253638 -2.73885,-0.968627 -5.40794,-2.125536 -7.76768,-3.852109 -2.33993,-1.718156 -4.51864,-3.627746 -6.70856,-5.531242 -2.05575,-1.700309 -4.13192,-3.381501 -6.36305,-4.850019 -2.08954,-1.397307 -4.22056,-2.75753 -6.10064,-4.435924 -1.81796,-1.735981 -3.48613,-3.619713 -4.77759,-5.789091 -1.17706,-2.045807 -2.15367,-4.189666 -2.68712,-6.5012195 -0.56253,-2.1630561 -0.97845,-4.358619 -1.44021,-6.544779 -0.37114,-1.82567126 -0.81656,-3.643148 -1.0239,-5.4968053 -0.24908,-0.8777395 0.99223,-1.2299878 1.24131,-0.3522482 z" inkscape:connector-curvature="0" />
      <path style="color:black;display:inline;overflow:visible;visibility:visible;opacity:1;fill:#b1c7cf;fill-opacity:1;fill-rule:nonzero;stroke:#f1f1f1;stroke-width:20;stroke-linecap:square;stroke-linejoin:miter;stroke-miterlimit:4;stroke-dasharray:none;stroke-dashoffset:0;stroke-opacity:0.48876403;marker:none;enable-background:accumulate" id="path11115" d="m 216.27317,-11.652284 c 1.15985,1.550106 2.0398,3.2856541 2.77792,5.068753 0.84475,2.0952896 1.6954,4.184772 2.64601,6.23462181 0.9276,1.96538269 2.02561,3.84242989 3.17925,5.68194739 1.17918,1.939816 2.43788,3.8290734 3.80738,5.6394528 1.32313,1.829714 2.99428,3.333123 4.80464,4.661772 2.11507,1.437501 4.36076,2.673044 6.61362,3.878712 2.61175,1.489312 5.37819,2.643678 8.22096,3.603868 2.94953,0.882084 5.98221,1.435026 8.99889,2.029585 3.07909,0.593754 6.16056,1.172731 9.25763,1.665311 3.21997,0.519532 6.46582,0.78537 9.7247,0.837955 3.22495,-0.02212 6.43153,-0.411326 9.64482,-0.644102 3.1175,-0.163992 6.23491,-0.3213 9.35187,-0.494327 3.09468,-0.190986 6.19353,-0.291643 9.29064,-0.433138 2.8299,-0.131452 5.62627,-0.5761 8.39977,-1.130944 2.70172,-0.554614 5.34589,-1.337744 7.97374,-2.166428 2.63219,-0.833529 5.26533,-1.668588 7.85312,-2.632474 2.44798,-0.899613 4.89449,-1.807903 7.31598,-2.777097 1.1165,-0.40154 2.13502,-1.047877 3.24218,-1.468379 0.6482,-0.246189 1.32596,-0.408089 1.97764,-0.64492 0.20815,-0.313151 0.65101,-0.01879 0.44286,0.294365 l 0,0 c -0.21527,0.331259 -0.37834,0.703037 -0.64582,0.993775 -1.32933,1.444925 -3.07692,2.506794 -4.78618,3.426879 -2.42024,1.172549 -4.92862,2.124175 -7.45166,3.051619 -2.63927,0.916111 -5.28184,1.821207 -7.95291,2.641858 -2.7079,0.822949 -5.42968,1.617242 -8.21626,2.132268 -2.87846,0.532144 -5.77669,0.964725 -8.70746,1.063405 -3.0892,0.148279 -6.18145,0.236658 -9.26824,0.437509 -3.10426,0.183498 -6.21238,0.297995 -9.3156,0.501011 -3.27979,0.249633 -6.55681,0.626444 -9.85102,0.583379 -3.34766,-0.107156 -6.68552,-0.423984 -9.98661,-1.002361 -3.11068,-0.533944 -6.21695,-1.098018 -9.30509,-1.751052 -3.08853,-0.643447 -6.19853,-1.240104 -9.20275,-2.219654 -2.94041,-1.023822 -5.7784,-2.292598 -8.46858,-3.867951 -2.27722,-1.322303 -4.57799,-2.617313 -6.70679,-4.174342 -1.90778,-1.483403 -3.67529,-3.116148 -5.08616,-5.094596 -1.34989,-1.892452 -2.62277,-3.8367941 -3.76617,-5.8622283 -1.09678,-1.9555407 -2.18003,-3.9269969 -2.98864,-6.02346212 -0.78163,-2.13298908 -1.33796,-4.33655108 -2.11745,-6.47034858 -0.74027,-1.7252847 -1.49485,-3.441952 -2.50636,-5.031294 -0.38109,-0.57002 0.42504,-1.108969 0.80613,-0.538948 z" inkscape:connector-curvature="0" />
      <path style="color:black;display:inline;overflow:visible;visibility:visible;opacity:1;fill:#b1c7cf;fill-opacity:1;fill-rule:nonzero;stroke:#f1f1f1;stroke-width:20;stroke-linecap:square;stroke-linejoin:miter;stroke-miterlimit:4;stroke-dasharray:none;stroke-dashoffset:0;stroke-opacity:0.48876403;marker:none;enable-background:accumulate" id="path11153" d="m 282.58438,-2.868746 c -1.62658,0.7050441 -3.31451,1.2465594 -4.99761,1.7965318 -1.90064,0.6230989 -3.80165,1.2472951 -5.68434,1.9230602 -2.09425,0.7123375 -4.14484,1.540202 -6.16456,2.4404679 -2.38202,1.0638546 -4.57998,2.4688898 -6.79539,3.832565 -2.35785,1.4811721 -4.73197,2.9360321 -7.09282,4.4124611 -2.15536,1.359897 -4.18727,2.89361 -6.24358,4.394928 -2.36322,1.780939 -4.62722,3.68652 -6.91199,5.565459 -2.38014,1.940203 -4.73152,3.914488 -6.97119,6.015971 -2.11279,1.990383 -4.05351,4.150582 -6.03298,6.270564 -1.92014,1.996835 -3.78434,4.045567 -5.6041,6.133951 -1.83441,2.133124 -3.61475,4.310402 -5.36898,6.509658 -1.83967,2.354491 -3.64278,4.735962 -5.41147,7.144144 -1.57511,2.142132 -3.02508,4.368262 -4.38618,6.651117 -1.35952,2.220134 -2.56868,4.521985 -3.68386,6.872567 -1.19944,2.635866 -2.27235,5.326088 -3.42572,7.982005 -1.18011,2.681104 -2.34354,5.366836 -3.42303,8.090142 -0.99071,2.573196 -1.70314,5.240965 -2.49018,7.880657 -0.42037,1.573306 -0.9981,3.077409 -1.74272,4.521936 0.0122,0.331556 -0.45669,0.348813 -0.46889,0.01726 l 0,0 c -0.4239,-1.533581 -0.50654,-3.05455 -0.2498,-4.636784 0.4178,-2.813038 1.13909,-5.555058 2.14638,-8.217868 1.03005,-2.77068 2.2061,-5.483093 3.39991,-8.186682 1.15298,-2.679988 2.28597,-5.368365 3.43895,-8.048147 1.12483,-2.426543 2.3708,-4.793546 3.73955,-7.092071 1.40917,-2.331778 2.83994,-4.654713 4.48695,-6.829084 1.77736,-2.436039 3.59096,-4.846006 5.46261,-7.210585 1.75408,-2.239303 3.55024,-4.446765 5.40803,-6.600961 1.83231,-2.120496 3.702,-4.206801 5.67075,-6.20253 2.0387,-2.136118 4.04673,-4.304692 6.17338,-6.35416 2.29983,-2.11396 4.68143,-4.132774 7.12555,-6.078453 2.34067,-1.889084 4.68744,-3.773439 7.11579,-5.549456 2.52261,-1.861732 5.14991,-3.580683 7.81543,-5.230166 2.36286,-1.4546256 4.74283,-2.8817207 7.14049,-4.2782838 2.28162,-1.3462274 4.58983,-2.662434 7.00755,-3.7511937 2.06554,-0.9003262 4.15842,-1.7354031 6.30253,-2.4319925 1.8994,-0.5970877 3.80042,-1.1841564 5.72711,-1.6887191 1.65824,-0.4669598 3.28924,-1.0141673 4.92256,-1.5604989 1.05514,-0.046576 1.12101,1.4456167 0.0659,1.492193 z" inkscape:connector-curvature="0" />
      <path style="color:black;display:inline;overflow:visible;visibility:visible;opacity:1;fill:#b1c7cf;fill-opacity:1;fill-rule:nonzero;stroke:#f1f1f1;stroke-width:20;stroke-linecap:square;stroke-linejoin:miter;stroke-miterlimit:4;stroke-dasharray:none;stroke-dashoffset:0;stroke-opacity:0.48876403;marker:none;enable-background:accumulate" id="path11191" d="m 261.03023,-5.2146581 c -1.40794,0.3943848 -2.76034,0.9311323 -4.07501,1.5647149 -1.3662,0.7186221 -2.81213,1.2615035 -4.21177,1.9066877 -1.95621,0.86272512 -3.81601,1.92380584 -5.63966,3.0349828 -2.25151,1.4476921 -4.41265,3.0335065 -6.56702,4.6211703 -2.44847,1.7677782 -4.85724,3.5879667 -7.25206,5.4273324 -2.35647,1.845606 -4.66001,3.757362 -6.99489,5.629852 -2.16112,1.750963 -4.24249,3.59112 -6.26684,5.497327 -1.78929,1.692215 -3.43378,3.523827 -5.06367,5.36704 -1.63531,1.882391 -3.12626,3.881247 -4.56919,5.91278 -1.48806,2.070891 -2.74036,4.289457 -3.85099,6.580807 -1.12342,2.369105 -2.08533,4.809747 -2.99878,7.265975 -0.90822,2.422516 -1.718,4.879944 -2.55757,7.326579 -0.75475,2.344062 -1.51712,4.686805 -2.37122,6.996856 -0.77994,1.971517 -1.38606,4.003579 -2.10507,5.996272 -0.31994,0.946175 -0.83262,1.804894 -1.31489,2.673206 -0.006,0.11299 -0.16555,0.104836 -0.15979,-0.0082 l 0,0 c -0.0662,-0.910884 -0.17615,-1.824842 -0.072,-2.738068 0.22908,-2.114976 0.7584,-4.175748 1.40866,-6.199432 0.71708,-2.341618 1.47237,-4.672181 2.2375,-6.998311 0.78305,-2.486138 1.61653,-4.956106 2.49752,-7.409283 0.94073,-2.507625 1.90861,-5.005901 3.03808,-7.43609 1.14677,-2.386507 2.40308,-4.718201 3.94488,-6.877641 1.46752,-2.092338 2.9803,-4.156661 4.66334,-6.083 1.64516,-1.909373 3.36369,-3.757015 5.18306,-5.502258 2.04862,-1.957074 4.17907,-3.827652 6.41097,-5.574224 2.33124,-1.914106 4.70896,-3.771879 7.08136,-5.634587 2.45111,-1.8648553 5.00607,-3.5819042 7.56654,-5.2922215 2.57651,-1.723843 5.17281,-3.4190958 7.85193,-4.9809709 1.88143,-1.0826521 3.79586,-2.1047421 5.78961,-2.967866 1.40392,-0.5625686 2.81144,-1.109554 4.24405,-1.5954428 1.37301,-0.4944388 2.75794,-0.9769362 4.19777,-1.2377558 0.51882,0.031719 0.47396,0.7654423 -0.0449,0.7337229 z" inkscape:connector-curvature="0" />
      <path style="color:black;display:inline;overflow:visible;visibility:visible;opacity:1;fill:#b1c7cf;fill-opacity:1;fill-rule:nonzero;stroke:#f1f1f1;stroke-width:20;stroke-linecap:square;stroke-linejoin:miter;stroke-miterlimit:4;stroke-dasharray:none;stroke-dashoffset:0;stroke-opacity:0.48876403;marker:none;enable-background:accumulate" id="path11229" d="m 310.93178,38.461671 c -1.30987,0.159169 -2.60659,0.404771 -3.88044,0.747736 -0.82359,0.216143 -1.53312,0.668236 -2.24389,1.115806 -0.0935,0.05988 -0.18703,0.119764 -0.28054,0.179646 -0.0843,0.059 -0.16864,0.11799 -0.25297,0.176985 0.16946,-0.129124 -0.75164,0.476902 -0.55711,0.368552 0.33193,-0.184888 2.62057,-1.642863 -0.58778,0.387859 -0.71671,0.456819 -1.44328,0.897654 -2.1501,1.369902 -0.8355,0.516871 -1.71577,0.957038 -2.59736,1.388856 -0.84065,0.392054 -1.62183,0.882818 -2.39696,1.387544 2.07788,-1.309756 -0.95329,0.69185 -1.2603,0.889584 -0.77395,0.516172 -1.53318,1.053526 -2.28136,1.606383 -0.75267,0.540629 -1.44584,1.155304 -2.15072,1.755439 -0.68518,0.598739 -1.40009,1.164469 -2.06461,1.786325 -0.71488,0.630328 -1.40339,1.286956 -2.1524,1.877484 -0.83457,0.653433 -1.65345,1.326156 -2.48688,1.98069 -0.91858,0.707074 -1.85522,1.391928 -2.8225,2.031064 -0.82147,0.575378 -1.57337,1.237288 -2.33527,1.886967 -0.63591,0.558578 -1.29829,1.085353 -1.95051,1.624207 -0.60384,0.502306 -1.18686,1.031767 -1.70428,1.62334 -0.60094,0.695987 -1.22554,1.372153 -1.81874,2.074682 -0.65881,0.775627 -1.32851,1.539717 -2.02888,2.278585 -0.85481,0.864948 -1.6096,1.818588 -2.37776,2.758928 -0.89367,1.153262 -1.83729,2.265848 -2.78712,3.372767 -0.92436,1.060094 -1.85531,2.113535 -2.74561,3.202637 -0.72976,0.892739 -1.40967,1.828995 -2.03356,2.79875 -0.62207,0.94861 -1.23323,1.90436 -1.84247,2.861263 -0.56535,0.891561 -1.07547,1.815774 -1.59266,2.735459 -0.48311,0.853777 -0.88971,1.745052 -1.302,2.63401 -0.46876,1.017351 -0.98337,2.012716 -1.48546,3.013797 -0.42169,0.920627 -0.94479,1.789449 -1.3991,2.692662 -0.53518,0.948587 -0.95711,1.95602 -1.38176,2.957655 -0.49692,1.055015 -0.94098,2.133373 -1.40626,3.202309 -0.40971,0.879636 -0.76676,1.781196 -1.10028,2.692006 -0.28707,0.87714 -0.43255,1.7884 -0.62589,2.68824 -0.19256,0.98685 -0.4212,1.96652 -0.68228,2.93749 -0.26109,0.89886 -0.56776,1.78395 -0.83032,2.68247 -0.25946,0.93606 -0.46477,1.8864 -0.73814,2.81848 -0.29021,0.93947 -0.50871,1.89508 -0.69486,2.85997 -0.16229,1.01031 -0.43954,2.00919 -0.5441,3.02787 -0.21318,0.75911 -0.34432,1.53682 -0.60451,2.29018 -0.22089,0.81278 -0.77827,1.34518 -1.38582,1.88901 0.0611,0.26963 -0.32017,0.35611 -0.38132,0.0865 l 0,0 c -0.79986,-0.27241 -1.43179,-0.56121 -1.74448,-1.40189 -0.32845,-0.90137 -0.3933,-1.80294 -0.39473,-2.7531 0.17319,-1.05333 0.26763,-2.11944 0.44902,-3.17176 0.17696,-1.0767 0.34782,-2.15995 0.65566,-3.20853 0.24902,-0.93296 0.52037,-1.85951 0.72137,-2.8052 0.23913,-0.91231 0.51094,-1.81467 0.79371,-2.71429 0.26579,-0.87732 0.4743,-1.76751 0.66695,-2.66333 0.19856,-1.02781 0.37249,-2.06198 0.64415,-3.07348 0.29406,-1.04804 0.69521,-2.057376 1.12278,-3.057456 0.46313,-1.080482 0.95123,-2.150218 1.40456,-3.235099 0.49156,-1.06574 0.92694,-2.155673 1.43135,-3.215586 0.47852,-0.859785 0.94265,-1.727929 1.40055,-2.599003 0.48641,-0.977963 0.98197,-1.95115 1.46678,-2.929941 0.45159,-0.945935 0.86203,-1.911525 1.36487,-2.832112 0.52287,-1.000203 1.0817,-1.981726 1.66878,-2.945646 0.6094,-0.995539 1.26082,-1.963307 1.90044,-2.939452 0.70735,-1.047153 1.38675,-2.113481 2.15985,-3.114912 0.90647,-1.1421 1.852,-2.253393 2.83516,-3.330301 0.94569,-1.053555 1.89079,-2.107053 2.77693,-3.211932 0.81348,-1.02576 1.63529,-2.046846 2.52487,-3.008282 0.67283,-0.707656 1.37805,-1.388079 1.99311,-2.148006 0.62464,-0.683489 1.25034,-1.366355 1.85127,-2.070644 0.63108,-0.707092 1.25239,-1.424613 1.97131,-2.046537 0.64685,-0.558591 1.32054,-1.082012 1.97928,-1.626483 0.85748,-0.705289 1.70038,-1.4326 2.60207,-2.080644 0.90256,-0.653993 1.8662,-1.219634 2.76108,-1.884928 0.83996,-0.623677 1.65622,-1.275535 2.48797,-1.910105 0.71162,-0.568186 1.45047,-1.10329 2.11591,-1.727456 0.7318,-0.593518 1.43443,-1.222432 2.18105,-1.798297 0.7682,-0.624152 1.52381,-1.264556 2.30713,-1.869443 0.80363,-0.594056 1.6171,-1.176002 2.46097,-1.711705 1.22113,-0.795823 2.49164,-1.514055 3.71281,-2.310177 0.86934,-0.502094 1.77864,-0.928892 2.69144,-1.345744 0.79014,-0.378988 1.58895,-0.742526 2.32286,-1.227408 0.72476,-0.417391 1.45223,-0.829781 2.17674,-1.247622 -2.28901,1.474548 1.35508,-0.892908 1.90842,-1.024192 0.92652,-0.389901 1.89615,-0.656571 2.88419,-0.842473 1.37647,-0.25832 2.76922,-0.404201 4.16923,-0.454647 1.9783,0.33978 1.49778,3.137524 -0.48053,2.797744 z" inkscape:connector-curvature="0" />
      <path style="color:black;display:inline;overflow:visible;visibility:visible;opacity:1;fill:#296a83;fill-opacity:1;fill-rule:nonzero;stroke:#f1f1f1;stroke-width:20;stroke-linecap:square;stroke-linejoin:miter;stroke-miterlimit:4;stroke-dasharray:none;stroke-dashoffset:0;stroke-opacity:0.48876403;marker:none;enable-background:accumulate" id="path12463" d="m 248.72911,51.34043 c -1.05835,0.298312 -1.45795,0.525699 -2.083,1.177669 -0.37524,0.465538 -0.37465,0.932255 0.0872,1.305796 0.78334,0.383583 1.54608,-0.06865 2.17421,-0.535567 -0.0594,0.01914 -0.20364,0.114446 -0.17826,0.05741 0.18406,-0.413642 0.89047,-0.76697 0.63898,-1.322868 -0.45741,0.08315 -0.93171,0.04736 -1.39744,0.07622 -0.27375,-0.04478 -1.60271,0.19505 -1.77426,0.02484 -0.0633,-0.06281 -0.0447,-0.172638 -0.0671,-0.258956 -0.20555,0.301571 -0.63204,0.01088 -0.42649,-0.290687 l 0,0 c 0.65864,-1.061005 1.44068,-1.447769 2.67505,-1.642549 1.33739,-0.08124 2.66172,0.141728 3.14987,1.573038 0.15672,1.801536 -0.87127,2.740131 -2.30014,3.680468 -1.29778,0.603954 -2.64113,0.812867 -3.86246,-0.09939 -0.93283,-0.96579 -1.14317,-2.140721 -0.4498,-3.333463 0.99034,-1.245503 2.412,-1.964436 3.94808,-2.323173 1.35143,0.09506 1.217,2.006268 -0.13443,1.911212 z" inkscape:connector-curvature="0" />
      <path style="color:black;display:inline;overflow:visible;visibility:visible;opacity:1;fill:#e5f2f7;fill-opacity:0.34831459;fill-rule:nonzero;stroke:#f1f1f1;stroke-width:20;stroke-linecap:square;stroke-linejoin:miter;stroke-miterlimit:4;stroke-dasharray:none;stroke-dashoffset:0;stroke-opacity:0.48876403;marker:none;enable-background:accumulate" id="path13669" d="m 232.54991,-12.227655 c 0.88605,1.36145 1.98071,2.54784 3.15223,3.6647061 1.76613,1.5640265 3.76169,2.8388754 5.72271,4.1397268 2.57187,1.6711472 5.26903,3.123611 8.01164,4.49013929 3.12306,1.56995341 6.31893,2.97483321 9.60091,4.17535861 3.22854,1.1347258 6.59826,1.7248223 9.98337,2.1416101 3.30038,0.3634097 6.62537,0.3426203 9.93294,0.1125082 3.31251,-0.2423675 6.54615,-1.0184925 9.72689,-1.9376894 3.27799,-0.9804644 6.48519,-2.1772232 9.67046,-3.4216199 3.14517,-1.26464686 6.20603,-2.7041212 9.45007,-3.7046068 0.53058,-0.1215307 1.06115,-0.2430613 1.59173,-0.3645919 0.53459,-0.043695 0.59639,0.7123376 0.0618,0.7560322 l 0,0 c -0.51131,0.3291827 -1.02262,0.6583655 -1.53393,0.9875482 -3.02694,1.74130181 -6.19971,3.1753461 -9.46305,4.4187014 -3.23807,1.2355963 -6.49504,2.4333116 -9.82759,3.3924349 -3.29783,0.8776283 -6.63345,1.6292758 -10.05093,1.8403956 -3.38881,0.1586611 -6.77347,0.057321 -10.1429,-0.3698426 -3.4819,-0.4499726 -6.94263,-1.1018118 -10.25339,-2.303854 -3.3207,-1.2322713 -6.52954,-2.7303031 -9.61662,-4.4701585 -2.69276,-1.50761653 -5.37661,-3.0393086 -7.95776,-4.7330506 -2.02088,-1.3128939 -3.98777,-2.7148945 -5.71775,-4.4024212 -1.19303,-1.1831925 -2.29606,-2.4546375 -3.11882,-3.9298085 -0.34048,-0.550129 0.43752,-1.031648 0.778,-0.481518 z" inkscape:connector-curvature="0" />
      <path style="color:black;display:inline;overflow:visible;visibility:visible;opacity:1;fill:#e5f2f7;fill-opacity:0.34831459;fill-rule:nonzero;stroke:#f1f1f1;stroke-width:20;stroke-linecap:square;stroke-linejoin:miter;stroke-miterlimit:4;stroke-dasharray:none;stroke-dashoffset:0;stroke-opacity:0.48876403;marker:none;enable-background:accumulate" id="path13833" d="m 265.62068,-3.2499635 c 0.87535,0.9059009 1.74724,1.8078382 2.75168,2.57196751 1.12545,0.73082055 2.40817,1.13176936 3.68064,1.52034123 1.784,0.53227056 3.56814,1.06509176 5.36323,1.55915346 1.87457,0.5522432 3.77203,1.0137824 5.67683,1.448056 2.09084,0.4513264 4.2214,0.6181409 6.35342,0.708817 2.28643,0.016153 4.56659,-0.1601239 6.8443,-0.3359516 2.51997,-0.2057762 5.02906,-0.5215957 7.52818,-0.9014975 2.50504,-0.4127905 5.05098,-0.4408975 7.58294,-0.5121219 0.37055,0.00305 0.74109,0.0061 1.11164,0.00915 0.11249,0.012042 0.0955,0.171133 -0.017,0.1590911 l 0,0 c -0.38467,0.127935 -0.76934,0.2558699 -1.15401,0.3838049 -2.5654,0.7627916 -5.12262,1.5985679 -7.7641,2.057767 -2.54079,0.4028672 -5.09003,0.7521628 -7.65951,0.9140067 -2.33546,0.1745766 -4.67996,0.3493427 -7.02307,0.256018 -2.22217,-0.090565 -4.43718,-0.3312084 -6.60333,-0.853085 -1.94222,-0.4219444 -3.8649,-0.929032 -5.77127,-1.490998 -1.79158,-0.5559802 -3.59729,-1.0653442 -5.38088,-1.6467904 -1.40897,-0.503364 -2.85326,-1.0093107 -3.97127,-2.04613853 -0.97772,-0.91056044 -1.80582,-1.95562297 -2.47834,-3.11258857 -0.4872,-0.657575 0.44275,-1.3465738 0.92995,-0.6889988 z" inkscape:connector-curvature="0" />
      <path style="color:black;display:inline;overflow:visible;visibility:visible;opacity:1;fill:#e5f2f7;fill-opacity:0.34831459;fill-rule:nonzero;stroke:#f1f1f1;stroke-width:20;stroke-linecap:square;stroke-linejoin:miter;stroke-miterlimit:4;stroke-dasharray:none;stroke-dashoffset:0;stroke-opacity:0.48876403;marker:none;enable-background:accumulate" id="path13871" d="m 237.86739,-2.1748621 c 0.16811,1.95057499 0.32605,3.8967195 0.68043,5.823776 0.41207,2.3685192 1.71153,4.2317612 3.23962,6.0138773 1.93554,2.1127618 4.24491,3.7820948 6.69872,5.2332408 3.02502,1.795518 6.2999,3.062937 9.61043,4.213739 3.72064,1.219253 7.54543,2.040396 11.41088,2.628456 3.89996,0.596272 7.83977,0.57173 11.76584,0.346759 4.11179,-0.257538 8.16371,-1.011226 12.20194,-1.787693 3.7258,-0.814068 7.51807,-1.220982 11.26235,-1.934507 0.11306,0.004 0.10737,0.163925 -0.006,0.159898 l 0,0 c -3.79166,1.261913 -7.48889,2.840378 -11.40288,3.70064 -4.0991,0.90656 -8.24397,1.609382 -12.44291,1.833787 -4.03033,0.177776 -8.07248,0.179071 -12.07034,-0.448559 -3.93164,-0.651461 -7.82796,-1.529803 -11.5479,-2.991097 -3.3381,-1.278968 -6.64489,-2.67916 -9.7492,-4.462817 -2.51291,-1.585843 -5.00354,-3.268307 -6.85747,-5.634483 -1.49634,-1.9704577 -2.65542,-4.1427942 -3.10987,-6.6018464 -0.3406,-1.9785826 -0.62006,-3.98862713 -0.43674,-5.99987 -0.066,-0.5323054 0.68682,-0.6256061 0.7528,-0.093301 z" inkscape:connector-curvature="0" />
      <path style="color:black;display:inline;overflow:visible;visibility:visible;opacity:1;fill:#e5f2f7;fill-opacity:0.34831459;fill-rule:nonzero;stroke:#f1f1f1;stroke-width:20;stroke-linecap:square;stroke-linejoin:miter;stroke-miterlimit:4;stroke-dasharray:none;stroke-dashoffset:0;stroke-opacity:0.48876403;marker:none;enable-background:accumulate" id="path13909" d="m 185.94935,104.74792 c 1.64339,-1.0656 3.44773,-1.80558 5.30545,-2.39873 2.97521,-0.85009 6.06733,-1.14711 9.12616,-1.53822 4.47783,-0.53067 8.96081,-1.016081 13.44933,-1.446895 5.13822,-0.550756 10.29807,-0.79032 15.46273,-0.867193 5.28162,-0.04565 10.54783,0.376021 15.79479,0.936588 5.01475,0.519722 10.02824,1.06327 15.02397,1.74383 3.82966,0.54938 7.70032,1.21095 11.28503,2.72968 0.65419,0.27716 1.28159,0.61373 1.92239,0.9206 0.57034,0.37274 1.14067,0.74547 1.71101,1.11821 0.0995,0.0538 0.0233,0.19456 -0.0761,0.14071 l 0,0 c -0.71275,-0.0839 -1.42549,-0.16773 -2.13824,-0.25159 -4.52553,-0.71036 -9.03547,-1.52092 -13.57317,-2.15311 -4.97969,-0.63801 -9.96599,-1.21733 -14.95844,-1.74666 -5.16515,-0.49796 -10.33693,-1.06474 -15.53327,-1.05134 -5.10927,0.0499 -10.21141,0.33392 -15.29628,0.84357 -4.46862,0.44676 -8.93658,0.89904 -13.40628,1.33483 -2.94923,0.28512 -5.91997,0.55452 -8.80334,1.26546 -1.73777,0.50306 -3.43699,1.11576 -5.06782,1.90434 -1.0494,0.16112 -1.27727,-1.32295 -0.22787,-1.48408 z" inkscape:connector-curvature="0" />
      <path style="color:black;display:inline;overflow:visible;visibility:visible;opacity:1;fill:#296a83;fill-opacity:1;fill-rule:nonzero;stroke:#f1f1f1;stroke-width:20;stroke-linecap:square;stroke-linejoin:miter;stroke-miterlimit:4;stroke-dasharray:none;stroke-dashoffset:0;stroke-opacity:0.48876403;marker:none;enable-background:accumulate" id="path12651" d="m 195.68096,38.948812 c 2.26157,-1.014169 4.33555,-2.377134 6.38007,-3.766908 3.55476,-2.545688 6.79544,-5.460346 9.86107,-8.568985 4.28125,-4.440005 7.97847,-9.376964 11.43617,-14.47019 3.35442,-4.9695409 5.92998,-10.3819479 8.48588,-15.7862712 1.40121,-3.3880529 3.08328,-6.6491618 4.64366,-9.9650898 0.008,-0.112885 0.1672,-0.102203 0.15964,0.01068 l 0,0 c -0.20245,3.574358 -0.60706,7.1322941 -2.02664,10.4641771 -2.17592,5.7146437 -4.96128,11.1660565 -8.3313,16.2754329 -3.50696,5.233066 -7.299,10.279162 -11.64137,14.856194 -1.57505,1.604337 -2.35842,2.456681 -4.02096,3.941701 -2.47427,2.210093 -5.22902,4.067861 -8.07645,5.760173 -2.18266,1.211917 -4.42061,2.486436 -6.90827,2.929972 -1.18857,-0.02722 -1.15007,-1.708112 0.0385,-1.680888 z" inkscape:connector-curvature="0" />
      <path style="color:black;display:inline;overflow:visible;visibility:visible;opacity:1;fill:#296a83;fill-opacity:1;fill-rule:nonzero;stroke:#f1f1f1;stroke-width:20;stroke-linecap:square;stroke-linejoin:miter;stroke-miterlimit:4;stroke-dasharray:none;stroke-dashoffset:0;stroke-opacity:0.48876403;marker:none;enable-background:accumulate" id="path12539" d="m 307.16718,61.159582 c -1.25013,1.629328 -2.60735,3.173635 -3.96373,4.714599 -2.42232,2.697534 -4.7995,5.431328 -7.08573,8.245312 -2.93509,3.573726 -5.41659,7.484123 -7.6921,11.501113 -2.63054,4.76144 -4.87957,9.717897 -7.31606,14.578724 -1.91066,3.81347 -4.06636,7.49462 -6.31001,11.11953 -1.28134,1.92775 -2.36705,3.99725 -3.74132,5.86195 -0.43745,0.63469 -0.97597,0.79889 -1.69117,0.73649 0.11748,0.10916 -0.0369,0.27529 -0.15437,0.16613 l 0,0 c -0.76918,-0.23503 -1.0119,-0.88847 -0.70249,-1.63441 0.95402,-2.11101 2.41304,-3.96403 3.56775,-5.96422 2.20363,-3.57976 4.39952,-7.1687 6.29052,-10.927393 2.46795,-4.900704 4.80038,-9.873409 7.476,-14.666463 2.41273,-4.084252 4.94699,-8.093079 7.99958,-11.739485 2.35805,-2.818292 4.76892,-5.594459 7.31662,-8.244096 1.45849,-1.53486 2.88195,-3.112913 4.43347,-4.553423 0.56967,-1.112311 2.14272,-0.306669 1.57304,0.805642 z" inkscape:connector-curvature="0" />
      <path style="color:black;display:inline;overflow:visible;visibility:visible;opacity:1;fill:#2a677f;fill-opacity:1;fill-rule:nonzero;stroke:#f1f1f1;stroke-width:9;stroke-linecap:square;stroke-linejoin:miter;stroke-miterlimit:4;stroke-dasharray:none;stroke-dashoffset:0;stroke-opacity:0.48876403;marker:none;enable-background:accumulate" id="path19985" d="m 297.09318,-1.8112958 c -0.22124,0.94957474 -0.24162,1.90221815 0.0428,2.8360212 0.2274,0.7016264 0.84922,1.0404448 1.45907,1.3724784 0.88427,0.4443493 1.86347,0.5160615 2.83572,0.5232686 0.96417,-0.031239 1.84883,-0.4335255 2.79009,-0.5842264 0.50947,0.064657 0.26472,-0.01943 0.72695,0.2725764 1.11347,-0.2125506 1.41407,1.3621444 0.30059,1.5746949 l 0,0 c -0.39905,0.8212622 -0.14899,0.4571716 -0.7356,1.1021472 -1.22457,0.8261745 -2.61754,1.1206465 -4.09186,0.9813686 -1.35673,-0.1715911 -2.60275,-0.6239296 -3.7366,-1.4030346 -1.10037,-0.7407505 -2.05522,-1.5923723 -2.44505,-2.9102199 -0.27431,-1.34087884 -0.23228,-2.68814458 0.22047,-3.9924158 0.16075,-1.862103 2.79416,-1.6347616 2.63341,0.2273414 z" inkscape:connector-curvature="0" />
      <path style="color:black;display:inline;overflow:visible;visibility:visible;opacity:1;fill:#2a677f;fill-opacity:1;fill-rule:nonzero;stroke:#f1f1f1;stroke-width:9;stroke-linecap:square;stroke-linejoin:miter;stroke-miterlimit:4;stroke-dasharray:none;stroke-dashoffset:0;stroke-opacity:0.48876403;marker:none;enable-background:accumulate" id="path21085" d="m 198.77757,92.103419 c 0.81783,-0.30388 1.58817,-0.06213 2.34311,0.288051 0.88489,0.497207 1.65171,1.166819 2.41167,1.832128 0.84316,0.708175 1.52906,1.557339 2.13276,2.471844 0.59602,0.980927 0.9503,2.06615 1.24861,3.166293 0.18484,0.820405 0.3756,1.646405 0.4002,2.489645 -0.0472,0.66624 -0.0285,1.11601 -0.55618,1.57589 -0.39714,0.19544 -0.8009,0.13533 -1.22026,0.0818 -0.0425,0.10485 -0.19078,0.0447 -0.1483,-0.0601 l 0,0 c -0.3084,-0.14421 -0.6187,-0.28452 -0.95305,-0.35925 -0.27956,-0.1911 -0.0814,-0.48064 -0.0958,-0.76637 -0.0219,-0.68502 -0.13404,-1.36033 -0.28911,-2.02826 -0.17609,-0.870494 -0.39385,-1.74969 -0.84868,-2.521577 -0.45813,-0.760446 -1.04044,-1.423413 -1.71458,-2.002226 -0.61401,-0.548832 -1.24615,-1.089451 -1.94876,-1.522338 -0.36761,-0.221824 -0.7575,-0.400505 -1.14129,-0.592279 -1.45182,-0.268422 -1.07222,-2.321601 0.37961,-2.05318 z" inkscape:connector-curvature="0" />
    </g>
  </g>
</svg>
