<?xml version="1.0" encoding="UTF-8" standalone="no"?>
<svg xmlns:dc="http://purl.org/dc/elements/1.1/" xmlns:cc="http://creativecommons.org/ns#" xmlns:rdf="http://www.w3.org/1999/02/22-rdf-syntax-ns#" xmlns:svg="http://www.w3.org/2000/svg" xmlns="http://www.w3.org/2000/svg" xmlns:xlink="http://www.w3.org/1999/xlink" xmlns:sodipodi="http://sodipodi.sourceforge.net/DTD/sodipodi-0.dtd" xmlns:inkscape="http://www.inkscape.org/namespaces/inkscape" version="1.1" inkscape:version="0.91pre2 r13516" sodipodi:docname="6 – Kopi.svg" id="svgEmpty" height="100" width="100">
  <sodipodi:namedview id="internalSetup" pagecolor="#fffffe" bordercolor="#515045" borderopacity="0.14" inkscape:current-layer="layerdraw1" inkscape:document-units="px" inkscape:pageopacity="0.0" inkscape:pageshadow="0" inkscape:zoom="1.6328077" inkscape:cx="103.48427" inkscape:cy="43" inkscape:window-width="1280" inkscape:window-height="777" inkscape:window-x="-8" inkscape:window-y="-8" inkscape:window-maximized="1" showgrid="false" inkscape:showpageshadow="false" />
  <metadata id="fileMetadata">
    <rdf:RDF>
      <cc:Work rdf:about="">
        <dc:title />
        <dc:format>image/svg+xml</dc:format>
        <dc:type rdf:resource="http://purl.org/dc/dcmitype/StillImage" />
      </cc:Work>
    </rdf:RDF>
  </metadata>
  <defs id="reuseDef">
  
    <clipPath id="CLIPDRAW" clipPathUnits="userSpaceOnUse">
      <rect id="clipper" y="0" x="200" height="100" width="100" style="display:inline;overflow:visible;visibility:visible;opacity:1;fill:#545045;fill-opacity:1;fill-rule:nonzero;stroke:none;enable-background:accumulate" />
    </clipPath>
	
    <symbol id="DRAWREGULAR">
      <use id="symdraw1" xlink:href="#DRAWING" x="0" y="0" height="100%" width="100%" transform="translate(-200,0)" style="display:inline" />
    </symbol>
    <symbol id="DRAWFH">
      <use id="symdraw2" xlink:href="#DRAWING" x="0" y="0" height="100%" width="100%" transform="matrix(-1,0,0,1,300,0)" style="display:inline" />
    </symbol>
    <symbol id="DRAWFV">
      <use id="symdraw3" xlink:href="#DRAWING" x="0" y="0" height="100%" width="100%" transform="matrix(1,0,0,-1,-200,100)" style="display:inline" />
    </symbol>
    <symbol id="DRAWFHV">
      <use id="symdraw4" xlink:href="#DRAWING" x="0" y="0" height="100%" width="100%" transform="matrix(-1,0,0,-1,300,100)" style="display:inline" />
    </symbol>
    <symbol id="DRAWR90">
      <use id="symdraw5" xlink:href="#DRAWING" x="0" y="0" height="100%" width="100%" transform="matrix(0,1,-1,0,100,-200)" style="display:inline" />
    </symbol>
    <symbol id="DRAWR90FH">
      <use id="symdraw6" xlink:href="#DRAWING" x="0" y="0" height="100%" width="100%" transform="matrix(0,1,1,0,0,-200)" style="display:inline" />
    </symbol>
    <symbol id="DRAWR90FV">
      <use id="symdraw7" xlink:href="#DRAWING" x="0" y="0" height="100%" width="100%" transform="matrix(0,-1,-1,0,100,300)" style="display:inline" />
    </symbol>
    <symbol id="DRAWR180">
      <use id="symdraw8" xlink:href="#DRAWING" x="0" y="0" height="100%" width="100%" transform="matrix(-1,0,0,-1,300,100)" style="display:inline" />
    </symbol>
    <symbol id="DRAWR270">
      <use id="symdraw9" xlink:href="#DRAWING" x="0" y="0" height="100%" width="100%" transform="matrix(0,-1,1,0,0,300)" style="display:inline" />
    </symbol>
	
	<!-- CMM, P4M, PM. -->
	
    <pattern id="PATCM" patternUnits="userSpaceOnUse" width="200" height="200" patternTransform="matrix(0.25,0,0,0.25,0,0)">
      <use id="cmsym1" xlink:href="#DRAWFH" x="0" y="0" width="100%" height="100%" />
      <use id="cmsym2" xlink:href="#DRAWREGULAR" x="100" y="0" width="100%" height="100%" />
	  <use id="cmsym3" xlink:href="#DRAWREGULAR" x="0" y="100" width="100%" height="100%" />
      <use id="cmsym4" xlink:href="#DRAWFH" x="100" y="100" width="100%" height="100%" />
    </pattern>
	<pattern id="PATP1" patternUnits="userSpaceOnUse" width="100" height="100" patternTransform="matrix(0.25,0,0,0.25,0,0)">
      <use id="p1sym1" xlink:href="#DRAWREGULAR" x="0" y="0" width="100%" height="100%" />
    </pattern>
	<pattern id="PATP2" patternUnits="userSpaceOnUse" width="200" height="100" patternTransform="matrix(0.25,0,0,0.25,0,0)">
      <use id="p2sym1" xlink:href="#DRAWREGULAR" x="0" y="0" width="100%" height="100%" />
      <use id="p2sym2" xlink:href="#DRAWR180" x="100" y="0" width="100%" height="100%" />
    </pattern>
	<pattern id="PATP4" patternUnits="userSpaceOnUse" width="200" height="200" patternTransform="matrix(0.25,0,0,0.25,0,0)">
      <use id="p4sym1" xlink:href="#DRAWR270" x="0" y="0" width="100%" height="100%" />
      <use id="p4sym2" xlink:href="#DRAWR90FV" x="100" y="0" width="100%" height="100%" />
	  <use id="p4sym3" xlink:href="#DRAWFH" x="0" y="100" width="100%" height="100%" />
      <use id="p4sym4" xlink:href="#DRAWREGULAR" x="100" y="100" width="100%" height="100%" />
    </pattern>
	<pattern id="PATP4G" patternUnits="userSpaceOnUse" width="200" height="200" patternTransform="matrix(0.25,0,0,0.25,0,0)">
      <use id="p4gsym1" xlink:href="#DRAWFV" x="0" y="0" width="100%" height="100%" />
      <use id="p4gsym2" xlink:href="#DRAWR90FV" x="100" y="0" width="100%" height="100%" />
	  <use id="p4gsym3" xlink:href="#DRAWR90FH" x="0" y="100" width="100%" height="100%" />
      <use id="p4gsym4" xlink:href="#DRAWFH" x="100" y="100" width="100%" height="100%" />
    </pattern>
	<pattern id="PATPG" patternUnits="userSpaceOnUse" width="100" height="200" patternTransform="matrix(0.25,0,0,0.25,0,0)">
      <use id="pgsym1" xlink:href="#DRAWFH" x="0" y="0" width="100%" height="100%" />
      <use id="pgsym2" xlink:href="#DRAWREGULAR" x="0" y="100" width="100%" height="100%" />
    </pattern>
	<pattern id="PATPGG" patternUnits="userSpaceOnUse" width="200" height="200" patternTransform="matrix(0.25,0,0,0.25,0,0)">
      <use id="pggsym1" xlink:href="#DRAWFHV" x="0" y="0" width="100%" height="100%" />
      <use id="pggsym2" xlink:href="#DRAWFH" x="100" y="0" width="100%" height="100%" />
	  <use id="pggsym3" xlink:href="#DRAWREGULAR" x="0" y="100" width="100%" height="100%" />
      <use id="pggsym4" xlink:href="#DRAWFV" x="100" y="100" width="100%" height="100%" />
    </pattern>
	<pattern id="PATPMG" patternUnits="userSpaceOnUse" width="200" height="200" patternTransform="matrix(0.25,0,0,0.25,0,0)">
      <use id="pmgsym1" xlink:href="#DRAWR270" x="0" y="0" width="100%" height="100%" />
      <use id="pmgsym2" xlink:href="#DRAWR180" x="100" y="0" width="100%" height="100%" />
	  <use id="pmgsym3" xlink:href="#DRAWREGULAR" x="0" y="100" width="100%" height="100%" />
      <use id="pmgsym4" xlink:href="#DRAWR90" x="100" y="100" width="100%" height="100%" />
    </pattern>
	<pattern id="PATPMM" patternUnits="userSpaceOnUse" width="200" height="200" patternTransform="matrix(0.25,0,0,0.25,0,0)">
      <use id="pmmsym1" xlink:href="#DRAWFV" x="0" y="0" width="100%" height="100%" />
      <use id="pmmsym2" xlink:href="#DRAWR180" x="100" y="0" width="100%" height="100%" />
	  <use id="pmmsym3" xlink:href="#DRAWREGULAR" x="0" y="100" width="100%" height="100%" />
      <use id="pmmsym4" xlink:href="#DRAWFH" x="100" y="100" width="100%" height="100%" />
    </pattern>
    
  </defs>
  <g id="BACKGROUND" inkscape:label="Background" inkscape:groupmode="layer">
    <rect id="backgrounder" x="-110" y="-110" height="320" width="520" style="fill:#4d6f7c;fill-opacity:1;fill-rule:nonzero;stroke:none;display:inline;overflow:visible;visibility:visible;opacity:1;enable-background:accumulate" />
  </g>
  <g id="layerpattern" inkscape:label="Pattern" inkscape:groupmode="layer" style="display:inline" sodipodi:insensitive="true">
    <g id="layerpatternpmm" inkscape:label="PMM" inkscape:groupmode="layer" style="display:none" sodipodi:insensitive="true">
      <rect id="pmmpreview" style="fill:url(#PATPMM);stroke:none" x="-100" y="-100" height="300" width="500" />
	</g>
	<g id="layerpatternpmg" inkscape:label="PMG" inkscape:groupmode="layer" style="display:none" sodipodi:insensitive="true">
      <rect id="pmgpreview" style="fill:url(#PATPMG);stroke:none" x="-100" y="-100" height="300" width="500" />
	</g>
	<g id="layerpatternpgg" inkscape:label="PGG" inkscape:groupmode="layer" style="display:none" sodipodi:insensitive="true">
      <rect id="pggpreview" style="fill:url(#PATPGG);stroke:none" x="-100" y="-100" height="300" width="500" />
	</g>
	<g id="layerpatternpg" inkscape:label="PG" inkscape:groupmode="layer" style="display:none" sodipodi:insensitive="true">
      <rect id="pgpreview" style="fill:url(#PATPG);stroke:none" x="-100" y="-100" height="300" width="500" />
	</g>
	<g id="layerpatternp4g" inkscape:label="P4G" inkscape:groupmode="layer" style="display:none" sodipodi:insensitive="true">
      <rect id="p4gpreview" style="fill:url(#PATP4G);stroke:none" x="-100" y="-100" height="300" width="500" />
	</g>
	<g id="layerpatternp4" inkscape:label="P4" inkscape:groupmode="layer" style="display:none" sodipodi:insensitive="true">
      <rect id="p4preview" style="fill:url(#PATP4);stroke:none" x="-100" y="-100" height="300" width="500" />
	</g>
	<g id="layerpatternp2" inkscape:label="P2" inkscape:groupmode="layer" style="display:none" sodipodi:insensitive="true">
      <rect id="p2preview" style="fill:url(#PATP2);stroke:none" x="-100" y="-100" height="300" width="500" />
	</g>
    <g id="layerpatternp1" inkscape:label="P1" inkscape:groupmode="layer" style="display:none" sodipodi:insensitive="true">
      <rect id="p1preview" style="fill:url(#PATP1);stroke:none" x="-100" y="-100" height="300" width="500" />
	</g>
	<g id="layerpatterncm" inkscape:label="CM" inkscape:groupmode="layer" style="display:inline" sodipodi:insensitive="true">
      <rect id="cmpreview" style="fill:url(#PATCM);stroke:none" x="-100" y="-100" height="300" width="500" />
	</g>
	<use id="bckdoubler" xlink:href="#BACKGROUND" x="0" y="0" height="100%" width="100%" clip-path="url(#CLIPDRAW)" sodipodi:insensitive="true" style="display:inline" />
  </g>
  <g id="DRAWING" inkscape:label="Draw" inkscape:groupmode="layer" style="display:inline" clip-path="url(#CLIPDRAW)" sodipodi:insensitive="true">
    <g id="layerdraw1" inkscape:label="Draw 1" inkscape:groupmode="layer" style="display:inline" sodipodi:insensitive="true">
	  <path id="path" inkscape:connector-curvature="0" style="font-style:normal;font-variant:normal;font-weight:normal;font-stretch:normal;font-size:medium;line-height:125%;font-family:'Times New Roman';-inkscape-font-specification:'Times New Roman, ';text-align:start;letter-spacing:0px;word-spacing:0px;text-anchor:start;fill:#f2f2f2;fill-opacity:1;stroke:none;stroke-width:1px;stroke-linecap:butt;stroke-linejoin:miter;stroke-opacity:1" transform="translate(200,0)" d="m 65.136719,28.363037 1.068115,13.061524 -1.068115,0 q -1.617432,-4.882813 -4.180908,-7.354737 -3.692627,-3.570556 -9.490967,-3.570556 -7.904053,0 -12.023926,6.256103 -3.448486,5.279541 -3.448486,12.573242 0,5.92041 2.288818,10.803223 2.288818,4.882812 5.981445,7.171631 3.723145,2.258301 7.629395,2.258301 2.288818,0 4.425049,-0.579834 2.13623,-0.579834 4.119873,-1.708985 l 0,-11.96289 q 0,-3.112793 -0.488282,-4.058838 -0.457763,-0.976563 -1.464843,-1.464844 -0.976563,-0.518799 -3.479004,-0.518799 l 0,-1.159668 16.021728,0 0,1.159668 -0.762939,0 q -2.380371,0 -3.265381,1.586914 -0.610352,1.129151 -0.610352,4.455567 l 0,12.664795 q -3.509521,1.892089 -6.92749,2.777099 -3.417969,0.88501 -7.598877,0.88501 -11.993408,0 -18.218994,-7.69043 -4.669189,-5.767822 -4.669189,-13.305664 0,-5.462646 2.624511,-10.467529 3.112793,-5.950928 8.544922,-9.155274 4.547119,-2.655029 10.742188,-2.655029 2.258301,0 4.089355,0.366211 1.861572,0.366211 5.249024,1.617432 1.708984,0.640869 2.288818,0.640869 0.579834,0 0.976563,-0.518799 0.427246,-0.549316 0.518798,-2.105713 l 1.129151,0 z" />
    </g>
  </g>
</svg>
